<?xml version="1.0" encoding="UTF-8"?>
<svg id="Layer_1" data-name="Layer 1" xmlns="http://www.w3.org/2000/svg" viewBox="0 0 1920 1080">
  <defs>
    <style>
      .cls-1 {
        fill: #96d7f4;
      }
    </style>
  </defs>
  <path class="cls-1" d="m2022,1186c-187,110-34.11,124.57-811,195-2.16,4.9-316.38,11.02-321,15.44-86.76,83.05-629.97,75.95-880.33-29.98-58.32-7.84-122.82-38.07-168.67-79.46-9.37-8.46-99.46-92.44-92-215,7.5-123.23,109.93-224.61,194-263.71v-2.19c66.68-32.47,124.98-52.28,153-61.1,317.2-99.8,416.1,57.37,898,43,392.87-11.72,430.48-119.26,776-91,91.49,7.49,225.6,18.45,350.98,53.48,85.26-.85,145.38,8.2,206.32,23.23,336.64,83.06-146.87,319.1-305.3,412.29Z"/>
</svg>